<svg id="ca-icon" xmlns="http://www.w3.org/2000/svg" width="28" height="20" viewBox="0 0 28 20">
  <rect id="Rectangle_4" data-name="Rectangle 4" width="27.5" height="19.5" rx="1.75" transform="translate(0.25 0.25)" fill="#fff" stroke="#f5f5f5" stroke-width="0.5"/>
  <g id="Group_9" data-name="Group 9">
    <rect id="Rectangle_5" data-name="Rectangle 5" width="8" height="20" transform="translate(20)" fill="#ff3131"/>
    <path id="Path_8" data-name="Path 8" d="M0,20H8V0H0Z" fill="#ff3131" fill-rule="evenodd"/>
    <path id="Path_9" data-name="Path 9" d="M16.112,9.222a.333.333,0,0,1-.562-.3L16,6.667l-1.333.667-.667-2-.667,2L12,6.667l.451,2.254a.333.333,0,0,1-.563.3L11.569,8.9a.333.333,0,0,0-.471,0l-.431.431L9.333,8.667,10,10l-.431.431a.333.333,0,0,0,0,.471l1.764,1.764h2l.333,2h.667l.333-2h2L18.431,10.9a.333.333,0,0,0,0-.471L18,10l.667-1.333-1.333.667L16.9,8.9a.333.333,0,0,0-.471,0Z" fill="#ff3131" fill-rule="evenodd"/>
  </g>
</svg>
