<svg id="dashboard-art" xmlns="http://www.w3.org/2000/svg" width="192.01" height="241.02" viewBox="0 0 192.01 241.02">
  <path id="Path_10" data-name="Path 10" d="M91.01,198.02h-83A14.024,14.024,0,0,1,22.03,184a13.861,13.861,0,0,1,7.36,2.09,31.966,31.966,0,0,1,61.62,11.93Z" fill="#cee3ff"/>
  <rect id="Rectangle_6" data-name="Rectangle 6" width="2" height="45.19" transform="translate(73.369 20.181) rotate(49.998)" fill="#cee3ff"/>
  <rect id="Rectangle_7" data-name="Rectangle 7" width="31" height="59" transform="translate(104.01 47.02)" fill="#cee3ff"/>
  <rect id="Rectangle_8" data-name="Rectangle 8" width="10" height="128" transform="translate(81.01 106.02)" fill="#fff"/>
  <rect id="Rectangle_9" data-name="Rectangle 9" width="6" height="128" transform="translate(88.01 106.02)" fill="#cee3ff"/>
  <path id="Path_11" data-name="Path 11" d="M102.01,46.02v60h-60v-60" fill="none" stroke="#48578c" stroke-linecap="round" stroke-linejoin="round" stroke-miterlimit="10" stroke-width="2"/>
  <path id="Path_12" data-name="Path 12" d="M132.01,52.02v54h-30v-60" fill="none" stroke="#48578c" stroke-linecap="round" stroke-linejoin="round" stroke-miterlimit="10" stroke-width="2"/>
  <g id="Group_10" data-name="Group 10">
    <path id="Path_13" data-name="Path 13" d="M86.51,67.02A14.485,14.485,0,0,1,73.82,81.4a13.531,13.531,0,0,1-1.81.12,14.5,14.5,0,0,1,0-29,13.421,13.421,0,0,1,1.81.12A14.478,14.478,0,0,1,86.51,67.02Z" fill="#fff" stroke="#48578c" stroke-linecap="round" stroke-linejoin="round" stroke-miterlimit="10" stroke-width="2"/>
    <ellipse id="Ellipse_1" data-name="Ellipse 1" cx="12.69" cy="14.38" rx="12.69" ry="14.38" transform="translate(61.13 52.64)" fill="#48578c"/>
  </g>
  <g id="Group_11" data-name="Group 11">
    <path id="Path_14" data-name="Path 14" d="M75.01,92.02a2.006,2.006,0,0,1-2,2h-12v-4h12A2.006,2.006,0,0,1,75.01,92.02Z" fill="#e5efff" stroke="#48578c" stroke-linecap="round" stroke-linejoin="round" stroke-miterlimit="10" stroke-width="2"/>
    <circle id="Ellipse_2" data-name="Ellipse 2" cx="2" cy="2" r="2" transform="translate(59.01 90.02)" fill="#fff" stroke="#48578c" stroke-linecap="round" stroke-linejoin="round" stroke-miterlimit="10" stroke-width="2"/>
  </g>
  <line id="Line_1" data-name="Line 1" x1="37" y1="32" transform="translate(72.01 20.02)" fill="none" stroke="#48578c" stroke-linecap="round" stroke-linejoin="round" stroke-miterlimit="10" stroke-width="2"/>
  <line id="Line_2" data-name="Line 2" y1="32" x2="38" transform="translate(34.01 20.02)" fill="none" stroke="#48578c" stroke-linecap="round" stroke-linejoin="round" stroke-miterlimit="10" stroke-width="2"/>
  <line id="Line_3" data-name="Line 3" x1="37" y1="32" transform="translate(102.01 20.02)" fill="none" stroke="#48578c" stroke-linecap="round" stroke-linejoin="round" stroke-miterlimit="10" stroke-width="2"/>
  <line id="Line_4" data-name="Line 4" x2="30" transform="translate(72.01 20.02)" fill="none" stroke="#48578c" stroke-linecap="round" stroke-linejoin="round" stroke-miterlimit="10" stroke-width="2"/>
  <line id="Line_5" data-name="Line 5" x2="30" transform="translate(109.01 52.02)" fill="none" stroke="#48578c" stroke-linecap="round" stroke-linejoin="round" stroke-miterlimit="10" stroke-width="2"/>
  <path id="Path_15" data-name="Path 15" d="M101.99,20.02l37.04,31.96-30,.03L71.99,20.05Z" fill="#48578c"/>
  <line id="Line_6" data-name="Line 6" x1="8" transform="translate(34.01 52.02)" fill="none" stroke="#48578c" stroke-linecap="round" stroke-linejoin="round" stroke-miterlimit="10" stroke-width="2"/>
  <line id="Line_7" data-name="Line 7" y2="126" transform="translate(91.43 106.75)" fill="#fff" stroke="#48578c" stroke-linecap="round" stroke-linejoin="round" stroke-miterlimit="10" stroke-width="2"/>
  <line id="Line_8" data-name="Line 8" y1="126" transform="translate(80.74 106.75)" fill="#fff" stroke="#48578c" stroke-linecap="round" stroke-linejoin="round" stroke-miterlimit="10" stroke-width="2"/>
  <path id="Path_16" data-name="Path 16" d="M42.01,45.28v6.74h-8Z" fill="#48578c"/>
  <path id="Path_17" data-name="Path 17" d="M192.01,241.02H59.46a19.15,19.15,0,0,1,17.69-26.46c.12,0,.26,0,.38.01a46.73,46.73,0,0,1,87.34,10.22c.77-.07,1.54-.1,2.33-.1A27.037,27.037,0,0,1,192.01,241.02Z" fill="#cee3ff"/>
  <path id="Path_18" data-name="Path 18" d="M63.34,69.77a7.491,7.491,0,0,0,13.24-1.75h-.06a7.5,7.5,0,0,1-6.88-4.52,38.469,38.469,0,1,0-6.3,6.27Z" fill="none" stroke="#0089ff" stroke-linecap="round" stroke-linejoin="round" stroke-miterlimit="10" stroke-width="2"/>
  <path id="Path_19" data-name="Path 19" d="M146.01,169.02H105.93a16.81,16.81,0,0,1,.05-1.87,14.638,14.638,0,0,1,27.92-4.67,9.733,9.733,0,0,1,3.38-.25A10.286,10.286,0,0,1,146.01,169.02Z" fill="#cee3ff"/>
</svg>
