<svg id="Group_7" data-name="Group 7" xmlns="http://www.w3.org/2000/svg" width="28" height="20" viewBox="0 0 28 20">
  <rect id="Rectangle_1" data-name="Rectangle 1" width="28" height="20" rx="2" fill="#fff"/>
  <g id="Group_6" data-name="Group 6">
    <path id="Path_1" data-name="Path 1" d="M28,0H0V1.333H28Zm0,2.667H0V4H28ZM0,5.333H28V6.667H0ZM28,8H0V9.333H28ZM0,10.667H28V12H0Zm28,2.667H0v1.333H28ZM0,16H28v1.333H0Zm28,2.667H0V20H28Z" fill="#d02f44" fill-rule="evenodd"/>
    <rect id="Rectangle_2" data-name="Rectangle 2" width="12" height="9.333" fill="#46467f"/>
    <g id="Group_5" data-name="Group 5">
      <path id="Path_2" data-name="Path 2" d="M2.667,2A.667.667,0,1,1,2,1.333.667.667,0,0,1,2.667,2ZM5.333,2a.667.667,0,1,1-.667-.667A.667.667,0,0,1,5.333,2Zm2,.667A.667.667,0,1,0,6.667,2,.667.667,0,0,0,7.333,2.667ZM10.667,2A.667.667,0,1,1,10,1.333.667.667,0,0,1,10.667,2ZM3.333,4a.667.667,0,1,0-.667-.667A.667.667,0,0,0,3.333,4Zm3.333-.667A.667.667,0,1,1,6,2.667.667.667,0,0,1,6.667,3.333Zm2,.667A.667.667,0,1,0,8,3.333.667.667,0,0,0,8.667,4Zm2,.667A.667.667,0,1,1,10,4,.667.667,0,0,1,10.667,4.667Zm-3.333.667a.667.667,0,1,0-.667-.667A.667.667,0,0,0,7.333,5.333Zm-2-.667A.667.667,0,1,1,4.667,4,.667.667,0,0,1,5.333,4.667ZM2,5.333a.667.667,0,1,0-.667-.667A.667.667,0,0,0,2,5.333ZM4,6a.667.667,0,1,1-.667-.667A.667.667,0,0,1,4,6Zm2,.667A.667.667,0,1,0,5.333,6,.667.667,0,0,0,6,6.667ZM9.333,6a.667.667,0,1,1-.667-.667A.667.667,0,0,1,9.333,6ZM10,8a.667.667,0,1,0-.667-.667A.667.667,0,0,0,10,8ZM8,7.333a.667.667,0,1,1-.667-.667A.667.667,0,0,1,8,7.333ZM4.667,8A.667.667,0,1,0,4,7.333.667.667,0,0,0,4.667,8Zm-2-.667A.667.667,0,1,1,2,6.667.667.667,0,0,1,2.667,7.333Z" fill="#fff" fill-rule="evenodd"/>
    </g>
  </g>
</svg>
